<mxfile host="app.diagrams.net" modified="2023-10-04T02:32:09.359Z" agent="Mozilla/5.0 (Windows NT 10.0; Win64; x64) AppleWebKit/537.36 (KHTML, like Gecko) Chrome/117.0.0.0 Safari/537.36 Edg/117.0.2045.47" etag="mgd8BOm8YvAO63Sql9TE" version="22.0.2" type="github">
  <diagram name="Page-1" id="r1QfZwIjFNC1j89XGL4V">
    <mxGraphModel dx="872" dy="481" grid="1" gridSize="10" guides="1" tooltips="1" connect="1" arrows="1" fold="1" page="1" pageScale="1" pageWidth="850" pageHeight="1100" math="0" shadow="0">
      <root>
        <mxCell id="0" />
        <mxCell id="1" parent="0" />
        <mxCell id="mLsOAfKlWhVE_lDePUCy-1" value="START" style="strokeWidth=2;html=1;shape=mxgraph.flowchart.terminator;whiteSpace=wrap;" parent="1" vertex="1">
          <mxGeometry x="365" y="30" width="110" height="40" as="geometry" />
        </mxCell>
        <mxCell id="mLsOAfKlWhVE_lDePUCy-2" style="edgeStyle=none;rounded=0;orthogonalLoop=1;jettySize=auto;html=1;exitX=0.5;exitY=0;exitDx=0;exitDy=0;exitPerimeter=0;" parent="1" source="mLsOAfKlWhVE_lDePUCy-1" target="mLsOAfKlWhVE_lDePUCy-1" edge="1">
          <mxGeometry relative="1" as="geometry" />
        </mxCell>
        <mxCell id="mLsOAfKlWhVE_lDePUCy-3" style="edgeStyle=none;rounded=0;orthogonalLoop=1;jettySize=auto;html=1;exitX=0;exitY=0.5;exitDx=0;exitDy=0;exitPerimeter=0;" parent="1" source="mLsOAfKlWhVE_lDePUCy-5" edge="1">
          <mxGeometry relative="1" as="geometry">
            <mxPoint x="290" y="350" as="targetPoint" />
          </mxGeometry>
        </mxCell>
        <mxCell id="mLsOAfKlWhVE_lDePUCy-4" value="NO" style="edgeStyle=none;rounded=0;orthogonalLoop=1;jettySize=auto;html=1;exitX=0.5;exitY=1;exitDx=0;exitDy=0;exitPerimeter=0;" parent="1" source="mLsOAfKlWhVE_lDePUCy-5" edge="1">
          <mxGeometry relative="1" as="geometry">
            <mxPoint x="425" y="450" as="targetPoint" />
          </mxGeometry>
        </mxCell>
        <mxCell id="mLsOAfKlWhVE_lDePUCy-5" value="ANGKA=&lt;br&gt;TEBAKAN" style="strokeWidth=2;html=1;shape=mxgraph.flowchart.decision;whiteSpace=wrap;" parent="1" vertex="1">
          <mxGeometry x="375" y="300" width="100" height="100" as="geometry" />
        </mxCell>
        <mxCell id="mLsOAfKlWhVE_lDePUCy-6" style="edgeStyle=none;rounded=0;orthogonalLoop=1;jettySize=auto;html=1;exitX=0.5;exitY=1;exitDx=0;exitDy=0;exitPerimeter=0;entryX=0.545;entryY=0.25;entryDx=0;entryDy=0;entryPerimeter=0;" parent="1" source="mLsOAfKlWhVE_lDePUCy-1" edge="1">
          <mxGeometry relative="1" as="geometry">
            <mxPoint x="419.95000000000005" y="100" as="targetPoint" />
          </mxGeometry>
        </mxCell>
        <mxCell id="mLsOAfKlWhVE_lDePUCy-7" style="edgeStyle=none;rounded=0;orthogonalLoop=1;jettySize=auto;html=1;exitX=0.5;exitY=1;exitDx=0;exitDy=0;" parent="1" source="mLsOAfKlWhVE_lDePUCy-8" target="mLsOAfKlWhVE_lDePUCy-10" edge="1">
          <mxGeometry relative="1" as="geometry">
            <mxPoint x="420" y="160" as="targetPoint" />
          </mxGeometry>
        </mxCell>
        <mxCell id="mLsOAfKlWhVE_lDePUCy-8" value="ANGKA" style="shape=parallelogram;html=1;strokeWidth=2;perimeter=parallelogramPerimeter;whiteSpace=wrap;rounded=1;arcSize=12;size=0.23;" parent="1" vertex="1">
          <mxGeometry x="370" y="100" width="100" height="30" as="geometry" />
        </mxCell>
        <mxCell id="mLsOAfKlWhVE_lDePUCy-9" style="edgeStyle=none;rounded=0;orthogonalLoop=1;jettySize=auto;html=1;exitX=0.5;exitY=1;exitDx=0;exitDy=0;" parent="1" source="mLsOAfKlWhVE_lDePUCy-10" edge="1">
          <mxGeometry relative="1" as="geometry">
            <mxPoint x="420" y="220" as="targetPoint" />
          </mxGeometry>
        </mxCell>
        <mxCell id="mLsOAfKlWhVE_lDePUCy-10" value="TEBAKAN" style="shape=parallelogram;html=1;strokeWidth=2;perimeter=parallelogramPerimeter;whiteSpace=wrap;rounded=1;arcSize=12;size=0.23;" parent="1" vertex="1">
          <mxGeometry x="370" y="160" width="100" height="30" as="geometry" />
        </mxCell>
        <mxCell id="mLsOAfKlWhVE_lDePUCy-11" style="edgeStyle=none;rounded=0;orthogonalLoop=1;jettySize=auto;html=1;exitX=0.5;exitY=1;exitDx=0;exitDy=0;" parent="1" source="mLsOAfKlWhVE_lDePUCy-12" edge="1">
          <mxGeometry relative="1" as="geometry">
            <mxPoint x="425" y="300" as="targetPoint" />
          </mxGeometry>
        </mxCell>
        <mxCell id="mLsOAfKlWhVE_lDePUCy-12" value="PROSES PENEBAKAN&lt;br&gt;ANGKA" style="rounded=1;whiteSpace=wrap;html=1;absoluteArcSize=1;arcSize=14;strokeWidth=2;" parent="1" vertex="1">
          <mxGeometry x="350" y="220" width="150" height="50" as="geometry" />
        </mxCell>
        <mxCell id="mLsOAfKlWhVE_lDePUCy-13" style="edgeStyle=orthogonalEdgeStyle;rounded=0;orthogonalLoop=1;jettySize=auto;html=1;exitX=0;exitY=0.5;exitDx=0;exitDy=0;" parent="1" source="mLsOAfKlWhVE_lDePUCy-14" target="mLsOAfKlWhVE_lDePUCy-15" edge="1">
          <mxGeometry relative="1" as="geometry">
            <mxPoint x="90" y="450" as="targetPoint" />
          </mxGeometry>
        </mxCell>
        <mxCell id="mLsOAfKlWhVE_lDePUCy-14" value="BENAR" style="shape=parallelogram;html=1;strokeWidth=2;perimeter=parallelogramPerimeter;whiteSpace=wrap;rounded=1;arcSize=12;size=0.23;" parent="1" vertex="1">
          <mxGeometry x="200" y="330" width="100" height="40" as="geometry" />
        </mxCell>
        <mxCell id="mLsOAfKlWhVE_lDePUCy-15" value="END" style="strokeWidth=2;html=1;shape=mxgraph.flowchart.terminator;whiteSpace=wrap;" parent="1" vertex="1">
          <mxGeometry x="40" y="420" width="90" height="40" as="geometry" />
        </mxCell>
        <mxCell id="mLsOAfKlWhVE_lDePUCy-16" value="YES" style="edgeStyle=none;rounded=0;orthogonalLoop=1;jettySize=auto;html=1;exitX=1;exitY=0.5;exitDx=0;exitDy=0;exitPerimeter=0;" parent="1" source="mLsOAfKlWhVE_lDePUCy-18" edge="1">
          <mxGeometry relative="1" as="geometry">
            <mxPoint x="570" y="490" as="targetPoint" />
          </mxGeometry>
        </mxCell>
        <mxCell id="mLsOAfKlWhVE_lDePUCy-17" value="NO" style="edgeStyle=orthogonalEdgeStyle;rounded=0;orthogonalLoop=1;jettySize=auto;html=1;exitX=0.5;exitY=1;exitDx=0;exitDy=0;exitPerimeter=0;elbow=vertical;" parent="1" source="mLsOAfKlWhVE_lDePUCy-18" edge="1">
          <mxGeometry relative="1" as="geometry">
            <mxPoint x="425" y="570" as="targetPoint" />
          </mxGeometry>
        </mxCell>
        <mxCell id="mLsOAfKlWhVE_lDePUCy-18" value="ANGKA=&lt;br&gt;TEBAKAN" style="strokeWidth=2;html=1;shape=mxgraph.flowchart.decision;whiteSpace=wrap;" parent="1" vertex="1">
          <mxGeometry x="375" y="450" width="100" height="80" as="geometry" />
        </mxCell>
        <mxCell id="mLsOAfKlWhVE_lDePUCy-19" style="edgeStyle=none;rounded=0;orthogonalLoop=1;jettySize=auto;html=1;exitX=0.5;exitY=0;exitDx=0;exitDy=0;entryX=1;entryY=0.5;entryDx=0;entryDy=0;" parent="1" source="mLsOAfKlWhVE_lDePUCy-20" target="mLsOAfKlWhVE_lDePUCy-10" edge="1">
          <mxGeometry relative="1" as="geometry">
            <Array as="points">
              <mxPoint x="630" y="175" />
            </Array>
          </mxGeometry>
        </mxCell>
        <mxCell id="mLsOAfKlWhVE_lDePUCy-20" value="ANGKA SAYA&lt;br&gt;LEBIH KECIL" style="shape=parallelogram;html=1;strokeWidth=2;perimeter=parallelogramPerimeter;whiteSpace=wrap;rounded=1;arcSize=12;size=0.23;" parent="1" vertex="1">
          <mxGeometry x="560" y="460" width="140" height="50" as="geometry" />
        </mxCell>
        <mxCell id="mLsOAfKlWhVE_lDePUCy-21" value="YES" style="edgeStyle=orthogonalEdgeStyle;rounded=0;orthogonalLoop=1;jettySize=auto;html=1;exitX=1;exitY=0.5;exitDx=0;exitDy=0;exitPerimeter=0;elbow=vertical;" parent="1" source="mLsOAfKlWhVE_lDePUCy-24" edge="1">
          <mxGeometry relative="1" as="geometry">
            <mxPoint x="570" y="610" as="targetPoint" />
          </mxGeometry>
        </mxCell>
        <mxCell id="mLsOAfKlWhVE_lDePUCy-22" style="edgeStyle=orthogonalEdgeStyle;rounded=0;orthogonalLoop=1;jettySize=auto;html=1;exitX=0.5;exitY=1;exitDx=0;exitDy=0;exitPerimeter=0;entryX=0.5;entryY=1;entryDx=0;entryDy=0;elbow=vertical;" parent="1" source="mLsOAfKlWhVE_lDePUCy-24" target="mLsOAfKlWhVE_lDePUCy-14" edge="1">
          <mxGeometry relative="1" as="geometry" />
        </mxCell>
        <mxCell id="mLsOAfKlWhVE_lDePUCy-23" value="NO" style="edgeLabel;html=1;align=center;verticalAlign=middle;resizable=0;points=[];" parent="mLsOAfKlWhVE_lDePUCy-22" vertex="1" connectable="0">
          <mxGeometry x="-0.5677" y="1" relative="1" as="geometry">
            <mxPoint as="offset" />
          </mxGeometry>
        </mxCell>
        <mxCell id="mLsOAfKlWhVE_lDePUCy-24" value="ANGKA=&lt;br&gt;TEBAKAN" style="strokeWidth=2;html=1;shape=mxgraph.flowchart.decision;whiteSpace=wrap;" parent="1" vertex="1">
          <mxGeometry x="375" y="570" width="100" height="80" as="geometry" />
        </mxCell>
        <mxCell id="mLsOAfKlWhVE_lDePUCy-25" style="edgeStyle=elbowEdgeStyle;rounded=0;orthogonalLoop=1;jettySize=auto;html=1;exitX=1;exitY=0.75;exitDx=0;exitDy=0;elbow=vertical;" parent="1" source="mLsOAfKlWhVE_lDePUCy-26" target="mLsOAfKlWhVE_lDePUCy-10" edge="1">
          <mxGeometry relative="1" as="geometry">
            <mxPoint x="840" y="180" as="targetPoint" />
            <Array as="points">
              <mxPoint x="810" y="390" />
            </Array>
          </mxGeometry>
        </mxCell>
        <mxCell id="mLsOAfKlWhVE_lDePUCy-26" value="ANGKA SAYA&lt;br&gt;LEBIH BESAR" style="shape=parallelogram;html=1;strokeWidth=2;perimeter=parallelogramPerimeter;whiteSpace=wrap;rounded=1;arcSize=12;size=0.23;" parent="1" vertex="1">
          <mxGeometry x="560" y="580" width="140" height="50" as="geometry" />
        </mxCell>
      </root>
    </mxGraphModel>
  </diagram>
</mxfile>
